<svg xmlns="http://www.w3.org/2000/svg" viewBox="0 0 800 280"><defs><linearGradient id="road" x2="0" y2="1"><stop stop-color="#2866a2"/><stop offset="1" stop-color="#082346"/></linearGradient><linearGradient id="glass" x2="0" y2="1"><stop stop-color="#bfe9ff"/><stop offset="1" stop-color="#5589b8"/></linearGradient></defs><g fill="#6aa2ce" opacity=".23"><path d="M15 201V96h44V65h36v136h22V44h38v157h26V112h49v89h18V24h36v177h28V74h46v127h29V40h47v161h20V96h41v105h28V48h44v153h27V78h46v123h22V28h43v173h23V95h39v106z"/></g><ellipse cx="405" cy="247" rx="380" ry="21" fill="#06192e" opacity=".5"/><path d="M0 244q400-28 800 0v36H0z" fill="url(#road)"/><g transform="translate(24 143)"><path d="m15 51 23-29q14-18 40-18h76q20 0 36 19l23 28 17 9v25H3V62z" fill="#fff" stroke="#a8c5dc" stroke-width="4"/><path d="m48 29 26-17h76q14 0 23 18l13 18H32z" fill="url(#glass)"/><path d="M5 69h222v11H5z" fill="#2b80cb"/><circle cx="58" cy="83" r="20" fill="#132e4c"/><circle cx="58" cy="83" r="11" fill="#dce8f1"/><circle cx="175" cy="83" r="20" fill="#132e4c"/><circle cx="175" cy="83" r="11" fill="#dce8f1"/></g><g transform="translate(268 38)"><rect x="0" y="11" width="195" height="174" rx="10" fill="#f8fcff" stroke="#6ba6d8" stroke-width="5"/><path d="M195 77h75q18 0 30 20l32 48v40H195z" fill="#f9fcff" stroke="#7daed7" stroke-width="5"/><path d="M216 88h50l30 45h-80z" fill="url(#glass)"/><rect x="4" y="176" width="327" height="18" rx="6" fill="#1671bd"/><path d="M24 31h147v12H24zM24 51h110v9H24z" fill="#c8e4f7"/><circle cx="69" cy="194" r="28" fill="#0c2848"/><circle cx="69" cy="194" r="15" fill="#dbe9f3"/><circle cx="255" cy="194" r="28" fill="#0c2848"/><circle cx="255" cy="194" r="15" fill="#dbe9f3"/><rect x="302" y="157" width="23" height="10" rx="4" fill="#fff1a5"/></g><g transform="translate(598 157)"><path d="m6 40 26-23Q47 2 69 2h69q20 0 36 17l20 21 18 9v23H3V51z" fill="#fff" stroke="#a8c5dc" stroke-width="4"/><path d="m44 21 26-12h63q14 0 25 15l12 14H29z" fill="url(#glass)"/><path d="M5 59h205v10H5z" fill="#2b80cb"/><circle cx="51" cy="72" r="18" fill="#132e4c"/><circle cx="51" cy="72" r="10" fill="#dce8f1"/><circle cx="164" cy="72" r="18" fill="#132e4c"/><circle cx="164" cy="72" r="10" fill="#dce8f1"/></g></svg>